<svg height="512" width="512" xmlns="http://www.w3.org/2000/svg"><path d="M47.117 158.533h417.766c25.98 0 47.117-21.137 47.117-47.117 0-26.013-21.137-47.149-47.117-47.149H47.117C21.137 64.267 0 85.403 0 111.416c0 25.98 21.137 47.117 47.117 47.117zm0-64.266h417.766c9.438 0 17.117 7.679 17.117 17.117 0 9.471-7.679 17.149-17.117 17.149H47.117c-9.438 0-17.117-7.679-17.117-17.149 0-9.439 7.679-17.117 17.117-17.117zm417.766 114.6H47.117C21.137 208.867 0 230.003 0 256.016c0 25.98 21.137 47.117 47.117 47.117h417.766c25.98 0 47.117-21.137 47.117-47.117 0-26.013-21.137-47.149-47.117-47.149zm0 64.266H47.117c-9.438 0-17.117-7.679-17.117-17.149 0-9.438 7.679-17.117 17.117-17.117h417.766c9.438 0 17.117 7.679 17.117 17.117 0 9.471-7.679 17.149-17.117 17.149zm0 80.334H47.117C21.137 353.467 0 374.604 0 400.616c0 25.98 21.137 47.117 47.117 47.117h417.766c25.98 0 47.117-21.137 47.117-47.117 0-26.012-21.137-47.149-47.117-47.149zm0 64.266H47.117c-9.438 0-17.117-7.679-17.117-17.149 0-9.438 7.679-17.117 17.117-17.117h417.766c9.438 0 17.117 7.679 17.117 17.117 0 9.471-7.679 17.149-17.117 17.149z"/></svg>